<svg xmlns="http://www.w3.org/2000/svg" viewBox="0 0 304.23 377.38"><defs><style>.cls-1{fill:#fff;}.cls-2{fill:#ff504f;}.cls-3{fill:#32d8e0;}.cls-4{fill:#eff6ef;}.cls-5{fill:#e4e8e8;}.cls-6{fill:#ee8632;}.cls-7{fill:#e5e5e5;}.cls-8{fill:#9d9c15;}</style></defs><g id="Layer_2" data-name="Layer 2"><g id="OBJECTS"><path class="cls-1" d="M304.07,377.31s0-376.59,0-376.59L158.66,0H0V377.31Z"/><path class="cls-2" d="M228,377.38h0V301.29h76.09A76.09,76.09,0,0,1,228,377.38Z"/><path class="cls-3" d="M304.07,226.43h0a0,0,0,0,1,0,0v76.09a0,0,0,0,1,0,0H228a0,0,0,0,1,0,0v0A76.09,76.09,0,0,1,304.07,226.43Z"/><path class="cls-4" d="M76.09,76.09H0V0H0A76.09,76.09,0,0,1,76.09,76.09Z"/><path class="cls-5" d="M76,151.87h0a76.09,76.09,0,0,1,76.09-76.09h0A76.08,76.08,0,0,1,76,151.87Z"/><path class="cls-6" d="M76.09,151.91H0A76.09,76.09,0,0,1,76.09,75.83h0Z"/><rect class="cls-3" x="75.99" width="76.09" height="76.09"/><rect class="cls-5" x="151.99" width="76.09" height="76.09"/><path class="cls-3" d="M228,75.78h76.09a0,0,0,0,1,0,0v76.09a0,0,0,0,1,0,0H264.12A36.15,36.15,0,0,1,228,115.73V75.78A0,0,0,0,1,228,75.78Z"/><path class="cls-2" d="M228.07,151.91h0A76.08,76.08,0,0,1,152,75.83h76.08Z"/><rect class="cls-6" x="227.98" width="76.09" height="76.09"/><rect class="cls-7" y="150.65" width="76.09" height="76.09"/><path class="cls-2" d="M0,150.65H11.83A64.25,64.25,0,0,1,76.09,214.9v11.83a0,0,0,0,1,0,0H0a0,0,0,0,1,0,0V150.65A0,0,0,0,1,0,150.65Z"/><path class="cls-5" d="M114,302.52H76v-38a38,38,0,0,1,38.05-38h0a38,38,0,0,1,38,38h0A38,38,0,0,1,114,302.52Z"/><rect class="cls-8" y="226.47" width="76.09" height="76.09"/><rect class="cls-6" x="75.99" y="150.65" width="76.09" height="76.09"/><rect class="cls-8" x="151.99" y="150.65" width="76.09" height="76.09"/><path class="cls-5" d="M152,150.65h11.83a64.25,64.25,0,0,1,64.25,64.25v11.83a0,0,0,0,1,0,0H152a0,0,0,0,1,0,0V150.65A0,0,0,0,1,152,150.65Z"/><rect class="cls-2" x="151.99" y="226.47" width="76.09" height="76.09"/><path class="cls-8" d="M152,226.47h76.09a0,0,0,0,1,0,0v11.83a64.25,64.25,0,0,1-64.25,64.25H152a0,0,0,0,1,0,0V226.47A0,0,0,0,1,152,226.47Z"/><path class="cls-5" d="M0,301.29H11.39A64.7,64.7,0,0,1,76.09,366v11.39a0,0,0,0,1,0,0H0a0,0,0,0,1,0,0V301.29A0,0,0,0,1,0,301.29Z"/><path class="cls-3" d="M114,377.38H76v-38a38.06,38.06,0,0,1,38.05-38h0a38,38,0,0,1,38,38h0A38,38,0,0,1,114,377.38Z"/><path class="cls-8" d="M172.37,14.54a5.07,5.07,0,1,1-5.07-5.07A5.07,5.07,0,0,1,172.37,14.54Z"/><path class="cls-8" d="M194.84,14.54a5.08,5.08,0,1,1-5.08-5.07A5.08,5.08,0,0,1,194.84,14.54Z"/><path class="cls-8" d="M217.3,14.54a5.08,5.08,0,1,1-5.08-5.07A5.07,5.07,0,0,1,217.3,14.54Z"/><path class="cls-8" d="M172.37,37.92a5.07,5.07,0,1,1-5.07-5.07A5.07,5.07,0,0,1,172.37,37.92Z"/><path class="cls-8" d="M217.3,37.92a5.08,5.08,0,1,1-5.08-5.07A5.07,5.07,0,0,1,217.3,37.92Z"/><path class="cls-8" d="M172.37,61.31a5.07,5.07,0,1,1-5.07-5.07A5.07,5.07,0,0,1,172.37,61.31Z"/><path class="cls-8" d="M194.84,61.31a5.08,5.08,0,1,1-5.08-5.07A5.08,5.08,0,0,1,194.84,61.31Z"/><path class="cls-8" d="M217.3,61.31a5.08,5.08,0,1,1-5.08-5.07A5.07,5.07,0,0,1,217.3,61.31Z"/><path class="cls-1" d="M96.37,165.21a5.07,5.07,0,1,1-5.07-5.07A5.07,5.07,0,0,1,96.37,165.21Z"/><path class="cls-1" d="M118.84,165.21a5.08,5.08,0,1,1-5.08-5.07A5.08,5.08,0,0,1,118.84,165.21Z"/><path class="cls-2" d="M58.3,321a5.07,5.07,0,1,1-5.07-5.07A5.07,5.07,0,0,1,58.3,321Z"/><path class="cls-2" d="M44.05,335.25A5.07,5.07,0,1,1,39,330.18,5.07,5.07,0,0,1,44.05,335.25Z"/><path class="cls-2" d="M25.14,56.17a5.08,5.08,0,1,1-5.07-5.08A5.07,5.07,0,0,1,25.14,56.17Z"/><path class="cls-2" d="M43.14,56.17a5.08,5.08,0,1,1-5.07-5.08A5.07,5.07,0,0,1,43.14,56.17Z"/><circle class="cls-1" cx="288.4" cy="246.5" r="5.07"/><path class="cls-1" d="M293.47,15.17a5.07,5.07,0,1,1-5.07-5.08A5.07,5.07,0,0,1,293.47,15.17Z"/><circle class="cls-1" cx="288.4" cy="267" r="5.07"/><circle class="cls-1" cx="288.4" cy="287.5" r="5.07"/><path class="cls-1" d="M96.37,188.59a5.07,5.07,0,1,1-5.07-5.07A5.07,5.07,0,0,1,96.37,188.59Z"/><path class="cls-1" d="M118.84,188.59a5.08,5.08,0,1,1-5.08-5.07A5.08,5.08,0,0,1,118.84,188.59Z"/><path class="cls-1" d="M200.8,270a5.07,5.07,0,1,1-5.07-5.07A5.07,5.07,0,0,1,200.8,270Z"/><path class="cls-1" d="M141.3,188.59a5.08,5.08,0,1,1-5.08-5.07A5.07,5.07,0,0,1,141.3,188.59Z"/><path class="cls-1" d="M217.3,89.5a5.07,5.07,0,1,1-5.07-5.07A5.07,5.07,0,0,1,217.3,89.5Z"/><path class="cls-1" d="M217.3,107a5.07,5.07,0,1,1-5.07-5.07A5.07,5.07,0,0,1,217.3,107Z"/><path class="cls-1" d="M118.84,212a5.08,5.08,0,1,1-5.08-5.08A5.08,5.08,0,0,1,118.84,212Z"/><path class="cls-1" d="M141.3,212a5.08,5.08,0,1,1-5.08-5.08A5.07,5.07,0,0,1,141.3,212Z"/><path class="cls-6" d="M228.07,377.38h0A76.08,76.08,0,0,1,152,301.29h0a76.09,76.09,0,0,1,76.08,76.09Z"/><path class="cls-6" d="M301.55,151.43h2.68a0,0,0,0,1,0,0V225a0,0,0,0,1,0,0H228a0,0,0,0,1,0,0v0A73.58,73.58,0,0,1,301.55,151.43Z"/></g></g></svg>